<svg width="24" height="24" viewBox="0 0 24 24" fill="none" xmlns="http://www.w3.org/2000/svg">
<g clip-path="url(#clip0_88_1575)">
<path d="M22.241 24L14.827 16.586C13.1939 17.8042 11.2124 18.465 9.175 18.471H9.173L9.065 18.472C6.66081 18.472 4.35509 17.5169 2.65508 15.8169C0.95506 14.1169 0 11.8112 0 9.40701L0.001 9.29301V9.29901C0.001 6.83302 0.980608 4.46804 2.72432 2.72433C4.46803 0.980615 6.83302 0.00100708 9.299 0.00100708C11.765 0.00100708 14.13 0.980615 15.8737 2.72433C17.6174 4.46804 18.597 6.83302 18.597 9.29901C18.5712 11.3454 17.9054 13.3323 16.693 14.981L16.712 14.954L24.126 22.368L22.241 24ZM9.299 2.51301C7.50886 2.45513 5.76895 3.11025 4.46155 4.33444C3.15414 5.55863 2.38618 7.25175 2.32637 9.04183C2.26657 10.8319 2.91982 12.5725 4.14261 13.8812C5.3654 15.19 7.0577 15.9597 8.84771 16.0215C10.6377 16.0832 12.379 15.4318 13.6891 14.2104C14.9991 12.989 15.7707 11.2976 15.8343 9.50762C15.898 7.71768 15.2485 5.97567 14.0285 4.66433C12.8085 3.35299 11.1179 2.57957 9.328 2.51401L9.299 2.51301Z" fill="white"/>
</g>
<defs>
<clipPath id="clip0_88_1575">
<rect width="24" height="24" fill="white"/>
</clipPath>
</defs>
</svg>
